<?xml version="1.0" encoding="UTF-8" standalone="no"?>
<!-- Generator: Adobe Illustrator 24.0.1, SVG Export Plug-In . SVG Version: 6.00 Build 0)  -->

<svg
   version="1.1"
   id="Layer_1"
   x="0px"
   y="0px"
   width="1000px"
   height="1000px"
   viewBox="0 0 1000 1000"
   style="enable-background:new 0 0 1000 1000;"
   xml:space="preserve"
   sodipodi:docname="pumpkin-vampire.svg"
   inkscape:version="1.2.1 (9c6d41e410, 2022-07-14)"
   xmlns:inkscape="http://www.inkscape.org/namespaces/inkscape"
   xmlns:sodipodi="http://sodipodi.sourceforge.net/DTD/sodipodi-0.dtd"
   xmlns="http://www.w3.org/2000/svg"
   xmlns:svg="http://www.w3.org/2000/svg">
   <defs
   id="defs993" />
   <sodipodi:namedview
   id="namedview991"
   pagecolor="#ffffff"
   bordercolor="#000000"
   borderopacity="0.25"
   inkscape:showpageshadow="2"
   inkscape:pageopacity="0.0"
   inkscape:pagecheckerboard="0"
   inkscape:deskcolor="#d1d1d1"
   showgrid="false"
   inkscape:zoom="1.628"
   inkscape:cx="477.27273"
   inkscape:cy="342.44472"
   inkscape:window-width="1920"
   inkscape:window-height="1052"
   inkscape:window-x="-8"
   inkscape:window-y="-8"
   inkscape:window-maximized="1"
   inkscape:current-layer="illustration"
   inkscape:lockguides="false" />
   <g
   id="illustration"
   style="fill:#000000">































      
      
   <path
   style="fill:#ff0000"
   d="m 444.71744,245.70025 c 0.94759,-5.68552 -2.30754,-11.27968 -6.66463,-16.00728 -6.94042,-7.53063 -16.67689,-12.8625 -16.67689,-12.8625 0,0 3.41206,-1.80639 15.39907,-3.35401 8.98304,-1.15979 22.78175,-2.17425 43.56899,-2.17425 26.24861,0 50.34051,0.89863 66.92869,1.72372 14.07838,0.70025 22.7519,1.34753 22.7519,1.34753 0,0 -6.37714,4.09959 -12.33586,9.80245 -3.82698,3.66264 -7.48137,7.98661 -9.16291,12.31058 -0.94057,2.4186 4.20313,29.14486 12.81424,69.42849 2.95143,13.80705 6.31018,29.20675 9.97091,45.76625 5.78433,26.16572 12.32259,55.22715 19.19912,85.47665 2.70743,11.90986 5.4673,24.00389 8.25423,36.17788 2.74961,12.01091 5.52556,24.09964 8.30349,36.1661 3.17135,13.77538 6.34529,27.52174 9.48557,41.09016 3.74923,16.19961 7.45048,32.14557 11.04204,47.58444 3.28817,14.13468 6.4844,27.84433 9.54135,40.93444 3.3682,14.42291 6.56732,28.09371 9.53402,40.75224 3.27153,13.95921 6.26044,26.68744 8.8818,37.83584 7.1161,30.26412 11.5236,48.88579 11.5236,48.88579 0,0 -12.90762,5.10301 -36.79391,2.9934 -9.60902,-0.84866 -20.99473,-2.86454 -34.03154,-6.84942 -6.52583,-1.9947 -13.46537,-4.48277 -20.80289,-7.56478 -8.31133,-3.49105 -17.13328,-7.74414 -26.44294,-12.90544 -7.80652,-4.32794 -15.95597,-9.29449 -24.43487,-14.9858 -7.0795,-4.75199 -14.31976,-8.92981 -21.65129,-12.59448 -6.59857,-3.29831 -13.27106,-6.18094 -19.96682,-8.69242 -8.9132,-3.34321 -17.86762,-6.02871 -26.74374,-8.16147 -7.59849,-1.82578 -15.13959,-3.24649 -22.54832,-4.32799 -6.45773,-0.94268 -12.8149,-1.62764 -19.02185,-2.0985 -9.42137,-0.7147 -18.49663,-0.93612 -27.05215,-0.81677 -10.78648,0.15048 -20.7468,0.84262 -29.53297,1.7708 -23.53286,2.48602 -38.64256,6.6653 -38.64256,6.6653 l 8.49744,-30.74074 10.95075,-39.61594 11.75612,-42.5295 11.91386,-43.10013 10.99435,-39.77368 9.28614,-33.59399 13.07831,-47.31272 8.18196,-29.59945 11.02128,-39.87111 6.35962,-23.00684 5.84279,-21.13716 z"
   id="path1564"
   sodipodi:nodetypes="cscssscsssssssssssscssssssssssssccccccccccccc" /><path
   style="fill:#ffe6d5;stroke-width:0.892066"
   d="m 466.30402,215.75921 -1.61606,59.63919 67.8747,0.55737 -3.23214,-59.0818 -9.5617,10.59013 -9.42705,5.99179 -12.38982,2.09016 -13.60187,-2.36885 -8.61901,-6.82785 z"
   id="path923" /><path
   style="display:inline;fill:#e6e6e6"
   d="m 410.31941,265.35627 -42.9451,2.23575 -50.48754,2.62842 -71.15615,3.70444 -66.99559,3.48784 -51.58515,2.68556 2.457,40.54054 59.56111,-1.12379 64.53129,-1.21757 78.01682,-1.47202 58.33304,-1.10062 9.07742,34.88793 12.9036,49.59335 11.36778,43.69063 9.68228,37.2126 7.95172,30.56143 28.27623,-0.40783 38.0579,-0.54891 31.92553,-0.46047 29.50447,-0.42554 3.7523,-17.18443 3.62427,-16.59814 5.72852,-26.23492 7.40452,-33.91059 6.5805,-30.13677 6.26855,-28.70813 9.02463,-41.33021 33.17943,0.39312 38.69236,0.45844 33.77904,0.40023 47.29066,0.56031 36.85714,0.4367 41.17085,0.4878 28.24428,0.33465 -1.84275,-39.92629 -42.36807,-2.69615 -51.66147,-3.28755 -49.70935,-3.16332 -52.84608,-3.36293 -39.88205,-2.53795 -33.80325,-2.15112 z"
   id="path446"
   sodipodi:nodetypes="cccccccccccccccccccccccccccccccccccccccccc" /><path
   style="display:inline;fill:#000000"
   d="m 430.58968,479.11548 1.51342,41.82541 0.92987,25.6982 0.8459,23.37759 1.33504,36.89564 1.22245,33.784 0.91008,25.15135 -0.70656,46.06738 -0.60309,39.32163 -0.66903,43.62037 -0.58382,38.06517 -0.50876,33.17115 36.85504,3.07125 c 0,0 1.03483,-14.12761 2.53216,-34.9184 0.7559,-10.4958 1.62967,-22.68973 2.54769,-35.62144 0.98536,-13.88043 2.02169,-28.61086 3.01793,-43.0037 0.90737,-13.10879 1.78148,-25.93753 2.55354,-37.58896 1.16822,-17.62989 2.1028,-32.56434 2.56542,-41.69499 0.25271,-4.98783 0.36459,-8.24372 0.29677,-9.26096 -0.18196,-2.72933 1.19917,-15.16058 3.23331,-31.30637 1.17651,-9.33845 2.57147,-19.91953 4.00879,-30.58476 1.03411,-7.67333 2.09015,-15.39023 3.10254,-22.71924 3.36056,-24.3281 6.24013,-44.38226 6.24013,-44.38226 l 3.19491,38.73825 2.1844,26.48592 2.16781,26.28465 2.28089,27.6558 3.07125,21.49877 2.66623,27.00637 4.61772,46.77294 4.60585,46.65283 3.14669,31.87294 4.00528,40.56961 39.31204,-0.61425 0.75835,-42.97332 0.52034,-29.48569 0.81292,-46.06529 0.72642,-41.16365 0.86748,-49.15726 -1.7074,-32.01377 -1.27402,-23.88782 -1.67299,-31.3686 -1.44084,-27.0157 -1.5715,-29.46574 -2.16126,-40.52355 -28.87853,0.26134 -26.40506,0.23896 -37.46622,0.33906 z"
   id="path1521"
   inkscape:label="pants"
   sodipodi:nodetypes="cccccccccccccsssssssssccccccccccccccccccccccccccc" /><path
   style="fill:#e6e6e6;stroke-width:1.05208"
   d="m 456.98585,241.55774 c 0,0 -5.64359,6.38894 -20.6109,13.87044 -21.14235,10.56813 -60.88878,23.31629 -129.61202,23.31629 h -126.7875 l 8.06826,18.09583 290.45753,-4.34807 z"
   id="path672"
   sodipodi:nodetypes="csscccc" /><path
   style="fill:#e6e6e6;stroke-width:1.04448"
   d="m 537.48313,237.57248 c 0,0 32.37528,37.18673 148.05922,37.18673 115.68394,0 124.96134,0 124.96134,0 l -7.95205,18.09583 -286.27399,-4.34807 z"
   id="path672-0" /><path
   style="display:inline;fill:#e6e6e6"
   d="m 543.61179,244.47174 c 0,0 11.40019,4.46654 27.57424,10.02315 26.61753,9.14448 66.16413,21.24123 89.106,21.24123 36.88242,0 34.42542,25.86093 34.42542,25.86093 L 535.01229,274.57002 Z"
   id="path696"
   sodipodi:nodetypes="cssccc" /><path
   style="fill:#4d4d4d"
   d="m 478.50123,257.98526 19.65602,11.67076 16.58477,-12.89926 7.98525,9.82801 -9.41558,7.28948 -9.62619,7.45253 c 0,0 2.32039,7.45839 3.34519,19.01748 0.32973,3.71913 0.52533,7.86278 0.46637,12.3191 -0.0564,4.26439 -0.34594,8.81511 -0.97412,13.55414 -0.60284,4.54789 -1.51756,9.2692 -2.83744,14.07734 -4.01937,14.64199 -8.48889,5.36504 -11.64175,-9.48082 -0.76136,-3.58497 -1.44593,-7.49467 -2.02885,-11.47072 -0.79286,-5.40809 -1.39766,-10.93892 -1.75178,-15.94229 -0.6141,-8.67659 -0.47435,-15.76695 0.74573,-17.88019 4.58296,-7.93791 -18.49288,-20.16456 -18.49288,-20.16456 z"
   id="path698"
   inkscape:label="tie"
   sodipodi:nodetypes="ccccccsssssssscc" /><path
   style="fill:#e6e6e6;stroke-width:0.999652"
   d="m 460.12257,224.20147 15.02839,15.7024 11.4093,11.921 13.45448,14.0579 -11.64166,8.0665 -12.42028,8.60601 -11.58957,-19.51577 -7.2646,-12.2329 -8.37382,-14.10074 z"
   id="path562"
   sodipodi:nodetypes="cccccccccc" /><path
   style="fill:#e6e6e6;stroke-width:1.01745"
   d="m 532.86842,223.12286 -12.01053,12.11397 -10.39992,10.48948 -7.94564,8.01405 -10.96933,11.0638 10.49089,7.01703 14.43555,9.65548 11.29502,-18.36011 6.62085,-10.76224 10.29037,-16.72706 z"
   id="path562-2"
   sodipodi:nodetypes="ccccccccccc" /><path
   style="display:inline;fill:#000000"
   d="m 449.63145,236.48649 c 0,0 -0.61093,10.99683 -22.51259,19.20396 -9.1559,3.43096 -22.03261,6.37439 -40.14097,7.82306 -8.50473,0.68038 -19.61182,1.47851 -32.4376,2.34875 -8.95239,0.60742 -18.74214,1.24998 -29.06873,1.91213 -10.38067,0.66563 -21.30382,1.35106 -32.4642,2.04054 -11.7494,0.72587 -23.76173,1.45621 -35.68081,2.17263 -9.51716,0.57205 -18.97486,1.13522 -28.19179,1.68015 -11.57814,0.68453 -22.77633,1.34028 -33.23514,1.94866 -12.23521,0.71172 -23.45853,1.35863 -33.09453,1.911 -20.97327,1.20226 -34.42671,1.95666 -34.42671,1.95666 l 0.62331,23.37404 0.60519,22.69476 34.40781,-0.41158 38.67021,-0.46256 29.48716,-0.35272 31.9585,-0.38228 32.55062,-0.38936 31.32965,-0.37476 30.09397,-0.35997 28.25884,-0.33803 c 0,0 2.39901,8.11664 6.00349,20.74892 1.85981,6.51791 4.04056,14.23801 6.37828,22.66565 1.52457,5.49617 3.11591,11.29325 4.72853,17.25406 0.99938,3.69401 2.00692,7.4509 3.01182,11.238 1.58459,5.97176 3.16261,12.01866 4.6916,18.01267 1.21967,4.7814 2.40815,9.52915 3.5439,14.17825 2.5953,10.62364 4.91526,20.73221 6.70287,29.55027 1.99222,9.82742 3.32324,18.05199 3.6373,23.60034 0.31846,5.62602 0.60022,10.2431 0.84847,14.03193 1.18824,18.13543 1.60853,17.29485 1.60853,17.29485 0,0 8.85485,1.5157 20.35489,3.05217 9.99576,1.33549 21.98996,2.68667 31.90486,3.07188 10.3311,0.40137 18.40467,-0.24604 19.60757,-3.0528 1.36923,-3.19487 3.58628,-11.30712 5.29674,-22.76184 2.54908,-17.07087 3.97302,-41.56525 -0.21117,-68.27037 -0.56537,-3.60839 -1.23312,-7.25714 -2.01432,-10.93339 -1.3779,-6.48422 -3.31194,-14.31605 -5.63138,-23.02692 -2.62376,-9.85379 -5.74067,-20.83244 -9.10355,-32.25772 -3.63227,-12.34054 -7.55149,-25.20214 -11.44619,-37.73017 -3.65969,-11.77208 -7.29773,-23.24963 -10.65569,-33.72359 -2.24086,-6.98955 -4.35699,-13.53219 -6.2716,-19.41717 -5.77544,-17.75212 -9.71714,-29.5201 -9.71714,-29.5201 z"
   id="path1286"
   sodipodi:nodetypes="cssssssssscccccccccccssssssssscsssssssssssc" /><path
   style="display:inline;fill:#000000"
   d="m 543.61179,235.87224 c 0,0 7.54359,6.91495 20.83202,12.87539 5.28804,2.37192 11.48583,4.59269 18.48002,6.16638 6.14195,1.38194 27.13836,3.56993 55.17889,6.07464 15.88583,1.41899 34.03254,2.93963 53.01992,4.47295 12.80172,1.03379 25.9856,2.07335 39.11637,3.09139 13.96765,1.08293 27.87521,2.14152 41.19877,3.14295 13.19473,0.99174 25.8167,1.92741 37.35706,2.77514 10.75313,0.78991 20.56718,1.50345 29.03049,2.11485 19.5984,1.41581 31.95354,2.28385 31.95354,2.28385 l 1.2285,40.54054 -28.249,0.13516 -41.15973,0.19694 -50.3674,0.24099 -39.92243,0.19102 -39.92538,0.19103 -33.79477,0.16169 -23.33805,0.11167 c 0,0 -3.94783,15.79134 -8.98087,37.80343 -1.96684,8.60199 -4.0994,18.15398 -6.22685,28.0848 -2.45714,11.46979 -4.90746,23.44494 -7.08776,35.04547 -1.50228,7.99304 -2.87636,15.80823 -4.03616,23.15773 -1.03843,6.58044 -1.90507,12.78755 -2.53813,18.41471 l -2.77565,24.67239 -2.75261,24.46766 c 0,0 -7.06952,1.04436 -16.61822,2.17434 -7.23924,0.85668 -15.90345,1.76258 -23.99234,2.2999 -10.74423,0.71372 -20.47344,0.77716 -24.5,-0.78873 l -11.05652,-4.29976 c 0,0 -2.77266,-9.87757 -4.26807,-25.85896 -0.6473,-6.91764 -1.05529,-14.97891 -0.89552,-23.87776 0.16604,-9.24846 0.94534,-19.4016 2.70659,-30.11586 1.11516,-6.7839 2.863,-16.00008 5.02655,-26.75731 3.08517,-15.33954 7.01566,-33.81265 11.16237,-52.83511 2.37924,-10.91441 4.82965,-22.00967 7.23242,-32.79766 2.7222,-12.2222 5.38325,-24.04998 7.81035,-34.77354 1.72339,-7.61438 3.32882,-14.67202 4.75443,-20.9188 3.85655,-16.89874 6.39717,-27.86352 6.39717,-27.86352 z"
   id="path1389"
   sodipodi:nodetypes="csssssssscccccccccsssssccssscssssssssc" /><circle
   style="fill:#ffcc00"
   id="path1497"
   cx="510.13513"
   cy="437.81082"
   r="4.6068797" /><circle
   style="fill:#ffcc00"
   id="path1497-7"
   cx="509.65601"
   cy="462.9877"
   r="4.6068797" /><path
   style="fill:#ff6600"
   d="m 451.28007,219.61489 c 6.39445,5.38147 12.88119,9.20332 19.29744,11.80587 6.2764,2.54583 12.48535,3.92494 18.4745,4.45589 6.939,0.61517 13.58297,0.0918 19.69494,-1.07462 6.20031,-1.18329 11.85314,-3.02838 16.71112,-5.01806 10.98219,-4.49794 17.90224,-9.73474 17.90224,-9.73474 0,0 6.41648,-4.5832 12.54198,-14.09484 1.53662,-2.38605 3.05494,-5.08225 4.44905,-8.09405 2.03885,-4.40465 3.81207,-9.4843 4.98845,-15.25599 1.43446,-7.03788 1.98148,-15.10475 1.04058,-24.23151 -0.75416,-7.31537 -1.96664,-13.77958 -3.53285,-19.43582 -1.41265,-5.10169 -3.11306,-9.54608 -5.0245,-13.36487 -3.41198,-6.81667 -7.49635,-11.63997 -11.8166,-14.6502 -6.03023,-4.2017 -12.52003,-4.87103 -18.28238,-2.4983 -14.76758,6.08077 -11.29286,1.30303 -24.32308,-1.30302 -6.74673,-1.34935 -12.91125,0.0959 -17.52889,1.92421 -4.30058,1.70273 -7.25942,3.73766 -8.09722,4.15656 -1.73736,0.86868 -15.20192,4.77776 -23.88874,-2.1717 -2.40602,-1.92482 -4.94532,-2.3169 -7.35949,-1.87765 -6.30209,1.14664 -11.7515,7.95842 -11.7515,7.95842 0,0 -3.1221,3.52495 -5.58356,11.44779 -0.88349,2.84375 -1.68188,6.25409 -2.22023,10.27138 -0.64564,4.81792 -0.91727,10.50883 -0.51317,17.14235 0.26971,4.42734 0.84042,9.27457 1.80184,14.56239 1.17205,6.44628 2.46765,12.08952 3.82011,17.01724 1.73833,6.33362 3.57061,11.48518 5.35525,15.64051 5.05971,11.78089 9.73658,15.55408 10.80432,15.55408 1.73736,0 3.04039,0.86868 3.04039,0.86868 z"
   id="path1621"
   inkscape:label="head"
   sodipodi:nodetypes="csssscssssssssssssscsssssssc" /><path
   style="fill:#008000"
   d="m 494.02733,111.01953 c 0,0 1.30302,-3.04038 9.55549,-3.04038 8.25248,0 8.25248,13.03022 12.59589,6.08077 4.3434,-6.94945 -4.77775,-6.51511 -3.47473,-10.42418 1.30302,-3.90907 9.12116,-21.717037 9.12116,-21.717037 0,0 -5.64643,-5.21209 -6.08077,-1.303023 -0.43434,3.909067 -3.90907,19.11099 -7.81814,20.84836 -3.90906,1.73736 -16.07061,2.1717 -16.07061,2.1717 l -3.90906,4.77775 z"
   id="path1677"
   inkscape:label="hair" /><path
   style="fill:#ffff00;stroke-width:1.07238"
   d="m 453.9312,144.34889 7.62095,2.20897 14.9134,4.32273 8.99239,2.60649 10.85656,3.14683 c 0,0 -2.51423,3.27943 -6.49271,5.9253 -2.69014,1.78906 -6.04976,3.28846 -9.75423,3.28846 -4.73967,0 -9.85569,-2.24994 -13.69695,-4.42729 -3.60114,-2.04123 -6.08191,-4.01866 -6.08191,-4.01866 l -2.38324,-4.89313 z"
   id="path1735"
   sodipodi:nodetypes="cccccsssccc" /><path
   style="fill:#ffff00;stroke-width:1.07238"
   d="m 545.76168,144.65602 -10.08873,2.92427 -8.35183,2.42082 -13.28738,3.85142 -10.65536,3.08851 c 0,0 2.54544,3.32014 6.56673,5.97434 2.67764,1.76734 6.00964,3.23942 9.68021,3.23942 4.25402,0 8.81121,-1.81248 12.47779,-3.75819 4.24837,-2.25445 7.30107,-4.68776 7.30107,-4.68776 z"
   id="path1735-8"
   sodipodi:nodetypes="cccccssscc" /><path
   style="fill:#ffff00;stroke-width:1.07244"
   d="m 460.53441,185.35012 c 0,0 5.05903,5.17493 16.96128,7.70361 3.97938,0.84543 8.72371,1.39506 14.29968,1.35658 3.26034,-0.0225 6.46002,-0.27573 9.54684,-0.6916 3.74297,-0.50428 7.31998,-1.24768 10.63797,-2.10883 2.12993,-0.55279 4.15313,-1.15411 6.04496,-1.77182 9.31976,-3.04308 15.45153,-6.48426 15.45153,-6.48426 0,0 -2.92811,6.092 -7.85514,12.7554 -2.60639,3.52491 -5.77215,7.20972 -9.35974,10.2372 -4.89602,4.13162 -10.57766,7.039 -16.69532,6.64499 -5.71801,-0.36827 -11.51538,-2.99969 -16.83068,-6.50431 -2.22781,-1.46889 -4.37093,-3.09118 -6.38803,-4.76452 -9.22444,-7.65237 -15.81335,-16.37244 -15.81335,-16.37244 z"
   id="path1761"
   sodipodi:nodetypes="cssssscsssssc" /></g>
   <g
   id="skeleton_1_"
   sodipodi:insensitive="true"
   style="display:inline;opacity:0.25">
      <circle
   id="rightShoulder"
   cx="392.79999"
   cy="294.29999"
   r="8.1999998" />
      <circle
   id="rightElbow"
   cx="289.29999"
   cy="294.39999"
   r="8.1999998" />

      <circle
   id="rightWrist"
   transform="matrix(0.9951,-0.09853767,0.09853767,0.9951,-29.0274,13.8698)"
   cx="125.9"
   cy="300.79999"
   r="8.1999998" />
      <circle
   id="rightHip"
   cx="443.10001"
   cy="510.10001"
   r="8.1999998" />
      <circle
   id="rightKnee"
   cx="449.5"
   cy="670.29999"
   r="8.1999998" />
      <circle
   id="rightAnkle"
   cx="449.5"
   cy="878.29999"
   r="8.1999998" />
      <circle
   id="leftShoulder"
   cx="605.70001"
   cy="294.29999"
   r="8.1999998" />
      <circle
   id="leftElbow"
   cx="710.09998"
   cy="294"
   r="8.1999998" />
      <circle
   id="leftWrist"
   cx="873.5"
   cy="300.29999"
   r="8.1999998" />
      <circle
   id="leftHip"
   cx="559.5"
   cy="509.29999"
   r="8.1999998" />
      <circle
   id="leftKnee"
   cx="559.5"
   cy="670.29999"
   r="8.1999998" />
      <circle
   id="leftAnkle"
   cx="559.5"
   cy="878.29999"
   r="8.1999998" />
      <polygon
   style="fill:none;stroke:#000000;stroke-miterlimit:10"
   points="443,510.4 559.4,509.6 605.6,294.6 392.7,294.6 "
   id="polygon886" />
      <polyline
   style="fill:none;stroke:#000000;stroke-miterlimit:10"
   points="391.7,294.6 289,294.6 125.7,300.9  "
   id="polyline888" />
      <polyline
   style="fill:none;stroke:#000000;stroke-miterlimit:10"
   points="607.1,294.2 710.3,294.2 873.6,300.6  "
   id="polyline890" />
      <polyline
   style="fill:none;stroke:#000000;stroke-miterlimit:10"
   points="443,510.4 449.4,670.6 449.4,878.6  "
   id="polyline892" />
      <polyline
   style="fill:none;stroke:#000000;stroke-miterlimit:10"
   points="559.4,509.6 559.4,670.6 559.4,878.6  "
   id="polyline894" />
      <circle
   id="rightEye0"
   cx="468.60001"
   cy="160.2"
   r="0.80000001" />
      <circle
   id="rightBrow1"
   cx="466.39999"
   cy="148.3"
   r="0.80000001" />
      <circle
   id="rightBrow4"
   cx="489.70001"
   cy="151.3"
   r="0.80000001" />
      <circle
   id="nose1"
   cx="497.60001"
   cy="161.2"
   r="0.80000001" />
      <circle
   id="rightBrow3"
   cx="479.89999"
   cy="147.3"
   r="0.80000001" />
      <circle
   id="rightEye1"
   cx="473.79999"
   cy="156.5"
   r="0.80000001" />
      <circle
   id="rightBrow0"
   cx="462.39999"
   cy="152"
   r="0.80000001" />
      <circle
   id="rightBrow2"
   cx="472.60001"
   cy="147.3"
   r="0.80000001" />
      <circle
   id="rightEye5"
   cx="473.79999"
   cy="162.5"
   r="0.80000001" />
      <circle
   id="rightEye2"
   cx="480.10001"
   cy="156.5"
   r="0.80000001" />
      <circle
   id="rightEye3"
   cx="485.29999"
   cy="160.7"
   r="0.80000001" />
      <circle
   id="nose0"
   cx="497.60001"
   cy="155.39999"
   r="0.80000001" />
      <circle
   id="nose3"
   cx="497.60001"
   cy="173.8"
   r="0.80000001" />
      <circle
   id="rightNose0"
   cx="486.89999"
   cy="178.3"
   r="0.80000001" />
      <circle
   id="rightMouthCorner"
   cx="480.89999"
   cy="200.39999"
   r="0.80000001" />
      <circle
   id="rightNose1"
   cx="492.10001"
   cy="178.3"
   r="0.80000001" />
      <circle
   id="rightUpperLipTop0"
   cx="487.79999"
   cy="197"
   r="0.80000001" />
      <circle
   id="nose2"
   cx="497.60001"
   cy="166.7"
   r="0.80000001" />
      <circle
   id="nose4"
   cx="497.60001"
   cy="179.10001"
   r="0.80000001" />
      <circle
   id="upperLipTopMid"
   cx="498.39999"
   cy="196.8"
   r="0.80000001" />
      <circle
   id="rightUpperLipTop1"
   cx="494.29999"
   cy="195.89999"
   r="0.80000001" />
      <path
   id="rightMiddleLip"
   d="m 484.5,199.9 c 0.4,0 0.8,0.4 0.8,0.8 0,0.4 -0.4,0.8 -0.8,0.8 -0.4,0 -0.8,-0.4 -0.8,-0.8 0,-0.4 0.4,-0.8 0.8,-0.8 z" />
      <circle
   id="lowerLipBottomMid"
   cx="498.39999"
   cy="210"
   r="0.80000001" />
      <circle
   id="upperLipBottomMid"
   cx="498.39999"
   cy="200.39999"
   r="0.80000001" />
      <circle
   id="lowerLipTopMid"
   cx="498.39999"
   cy="203.5"
   r="0.80000001" />
      <circle
   id="rightUpperLipBottom1"
   cx="494.5"
   cy="199.89999"
   r="0.80000001" />
      <circle
   id="rightLowerLipTop0"
   cx="494.5"
   cy="202.8"
   r="0.80000001" />
      <circle
   id="rightLowerLipBottom1"
   cx="494.29999"
   cy="209.5"
   r="0.80000001" />
      <circle
   id="rightLowerLipBottom0"
   cx="487.29999"
   cy="206.7"
   r="0.80000001" />
      <circle
   id="rightEye4"
   cx="480.10001"
   cy="161.7"
   r="0.80000001" />
      <circle
   id="jawMid"
   cx="498.39999"
   cy="235.8"
   r="0.80000001" />
      <circle
   id="rightJaw7"
   cx="483.39999"
   cy="232.60001"
   r="0.80000001" />
      <circle
   id="rightJaw6"
   cx="473.39999"
   cy="225.89999"
   r="0.80000001" />
      <circle
   id="rightJaw5"
   cx="461.79999"
   cy="213.39999"
   r="0.80000001" />
      <circle
   id="rightJaw4"
   cx="455"
   cy="193.39999"
   r="0.80000001" />
      <circle
   id="rightJaw3"
   cx="454.20001"
   cy="171.7"
   r="0.80000001" />
      <circle
   id="rightJaw2"
   cx="454.20001"
   cy="162.2"
   r="0.80000001" />
      <circle
   id="rightJaw1"
   cx="455"
   cy="150.5"
   r="0.80000001" />
      <circle
   id="rightJaw0"
   cx="457.5"
   cy="141.2"
   r="0.80000001" />
      <circle
   id="topMid"
   cx="498.60001"
   cy="115.1"
   r="0.80000001" />
      <circle
   id="leftTop0"
   cx="518.29999"
   cy="117.6"
   r="0.80000001" />
      <circle
   id="leftTop1"
   cx="530.90002"
   cy="127.1"
   r="0.80000001" />
      <circle
   id="leftEye0"
   cx="528.20001"
   cy="160.2"
   r="0.80000001" />
      <circle
   id="leftBrow1"
   cx="530.09998"
   cy="148.7"
   r="0.80000001" />
      <circle
   id="leftBrow4"
   cx="506.5"
   cy="150.8"
   r="0.80000001" />
      <circle
   id="leftBrow3"
   cx="516.5"
   cy="147.60001"
   r="0.80000001" />
      <circle
   id="leftEye1"
   cx="523"
   cy="156.5"
   r="0.80000001" />
      <circle
   id="leftBrow0"
   cx="534.09998"
   cy="151.60001"
   r="0.80000001" />
      <circle
   id="leftBrow2"
   cx="523.79999"
   cy="147.2"
   r="0.80000001" />
      <circle
   id="leftEye5"
   cx="523"
   cy="162.5"
   r="0.80000001" />
      <circle
   id="leftEye2"
   cx="516.70001"
   cy="156.5"
   r="0.80000001" />
      <circle
   id="leftEye3"
   cx="511.5"
   cy="160.7"
   r="0.80000001" />
      <circle
   id="leftNose0"
   cx="508"
   cy="178.3"
   r="0.80000001" />
      <circle
   id="leftMouthCorner"
   cx="515.90002"
   cy="200.39999"
   r="0.80000001" />
      <circle
   id="leftNose1"
   cx="503.20001"
   cy="178.3"
   r="0.80000001" />
      <circle
   id="leftUpperLipTop0"
   cx="509"
   cy="197"
   r="0.80000001" />
      <circle
   id="leftUpperLipTop1"
   cx="502.60001"
   cy="195.89999"
   r="0.80000001" />
      <path
   id="leftMiddleLip"
   d="m 512.3,199.9 c 0.4,0 0.8,0.4 0.8,0.8 0,0.4 -0.4,0.8 -0.8,0.8 -0.4,0 -0.8,-0.4 -0.8,-0.8 0,-0.4 0.4,-0.8 0.8,-0.8 z" />
      <circle
   id="leftUpperLipBottom1"
   cx="502.39999"
   cy="199.89999"
   r="0.80000001" />
      <circle
   id="leftLowerLipTop0"
   cx="502.39999"
   cy="202.8"
   r="0.80000001" />
      <circle
   id="leftLowerLipBottom1"
   cx="502.60001"
   cy="209.5"
   r="0.80000001" />
      <circle
   id="leftLowerLipBottom0"
   cx="509.5"
   cy="206.7"
   r="0.80000001" />
      <circle
   id="leftEye4"
   cx="516.70001"
   cy="161.7"
   r="0.80000001" />
      <circle
   id="leftJaw7"
   cx="513.20001"
   cy="233"
   r="0.80000001" />
      <circle
   id="leftJaw6"
   cx="523.20001"
   cy="226.3"
   r="0.80000001" />
      <circle
   id="leftJaw5"
   cx="534.79999"
   cy="213.7"
   r="0.80000001" />
      <circle
   id="leftJaw4"
   cx="541.59998"
   cy="193.7"
   r="0.80000001" />
      <circle
   id="leftJaw3"
   cx="542.40002"
   cy="172.10001"
   r="0.80000001" />
      <circle
   id="leftJaw2"
   cx="542.40002"
   cy="162.5"
   r="0.80000001" />
      <circle
   id="leftJaw1"
   cx="541.59998"
   cy="150.8"
   r="0.80000001" />
      <circle
   id="leftJaw0"
   cx="539.09998"
   cy="141.60001"
   r="0.80000001" />
      <polyline
   style="fill:none;stroke:#000000;stroke-miterlimit:10"
   points="498.4,115.1 478.6,117.6 466.1,127.1 457.5,141.2    455,150.5 454.2,162.2 454.2,171.7 455,193.4 461.8,213.4 473.4,225.9 483.4,232.6 498.4,235.8 513.2,233 523.2,226.3 534.8,213.7    541.6,193.7 542.4,172.1 542.4,162.5 541.6,150.8 539.1,141.6 530.9,127.1 518.3,117.6 498.4,115.1  "
   id="polyline967" />
      <polyline
   style="fill:none;stroke:#000000;stroke-miterlimit:10"
   points="462.4,152 466.4,148.3 472.6,147.3 479.9,147.3    489.7,151.3  "
   id="polyline969" />
      <polygon
   style="fill:none;stroke:#000000;stroke-miterlimit:10"
   points="485.3,160.7 480.1,161.7 473.8,162.5 468.6,160.2 473.8,156.5 480.1,156.5 "
   id="polygon971" />
      <polyline
   style="fill:none;stroke:#000000;stroke-miterlimit:10"
   points="486.9,178.3 492.1,178.3 497.6,179.1 497.6,173.8    497.6,166.7 497.6,161.2 497.6,155.4  "
   id="polyline973" />
      <polyline
   style="fill:none;stroke:#000000;stroke-miterlimit:10"
   points="533.9,151.6 529.9,148.7 523.6,147.2 516.3,147.6    506.3,150.8  "
   id="polyline975" />
      <polygon
   style="fill:none;stroke:#000000;stroke-miterlimit:10"
   points="511.3,160.7 516.4,161.7 522.7,162.5 528,160.2 522.7,156.5 516.4,156.5 "
   id="polygon977" />
      <polyline
   style="fill:none;stroke:#000000;stroke-miterlimit:10"
   points="508,178.3 503,178.3 497.6,179.1  "
   id="polyline979" />
      <polygon
   style="fill:none;stroke:#000000;stroke-miterlimit:10"
   points="498.4,210 494.3,209.5 487.3,206.7 480.9,200.4 487.8,197 494.3,195.9 498.4,196.8 502.6,195.9 509,197 515.9,200.4 509.5,206.7 502.4,209.5 "
   id="polygon981" />
      <polyline
   style="fill:none;stroke:#000000;stroke-miterlimit:10"
   points="480.9,200.4 484.5,200.7 494.5,199.9 498.4,200.4    502.4,199.9 512.3,200.7 515.9,200.4  "
   id="polyline983" />
      <polyline
   style="fill:none;stroke:#000000;stroke-miterlimit:10"
   points="480.9,200.4 484.5,200.7 494.5,202.8 498.4,203.6    502.4,202.8 512.3,200.7 515.9,200.4  "
   id="polyline985" />
      <circle
   id="rightTop0"
   cx="478.70001"
   cy="117.6"
   r="0.80000001" />
      <circle
   id="rightTop1"
   cx="466.10001"
   cy="127.1"
   r="0.80000001" />
   </g>
</svg>
