<?xml version="1.0" standalone="yes"?>
<svg xmlns="http://www.w3.org/2000/svg" width="618" height="800">
<path style="fill:#fefefe; stroke:none;" d="M1.25977 1.25977L0 13L0 45L0 175L0 642L0 759L0 788L1.25977 798.74L24 800L89 800L351 800L550 800L599 800L616.74 798.74L618 787L618 755L618 625L618 158L618 41L618 12L616.74 1.25977L594 0L529 0L267 0L68 0L19 0L1.25977 1.25977z"/>
<path style="fill:#1d1c1c; stroke:none;" d="M314.589 16.0718C312.277 17.6151 308.961 33.2238 312.39 34.0787C315.698 34.9035 316.238 24.8053 320.109 24.02C322.906 23.4526 325.748 25.8341 328 27.1396C333.758 30.4775 339.785 33.4849 344.995 37.669C346.792 39.1115 349.793 41.2123 349.793 43.8195C349.793 49.2689 338.783 53.0182 335 55.0039C321.251 62.2213 310.305 74.0645 296 80.571C286.717 84.7935 276.86 85.7217 267 87.213C263.198 87.788 259.922 89.8563 256 89.9383C252.193 90.0178 248.771 88.0461 245 88.1589C241.001 88.2786 237.846 90.9264 234 91.5695C230.261 92.1945 226.698 90.3445 223 90.0972C219.205 89.8434 215.726 91.462 212 91.3271C200.5 90.9108 188.459 87.0213 177 87.213C172.03 87.2961 168.016 91.2563 163 91.8256C157.426 92.4582 151.167 89.3023 146 90.5571C140.792 91.822 137.252 96.8463 132 98.3619C127.402 99.6887 122.34 97.2584 118 99.027C112.641 101.211 108.18 105.944 103 108.637C93.9159 113.361 84.3387 116.497 76.0394 122.786C57.692 136.688 46.2701 153.935 35.7384 174C30.6513 183.692 24.8272 193.08 22.3935 204C20.2133 213.782 21.1095 224.144 20.9815 234C20.9247 238.37 18.9596 242.68 19.2338 247C19.4358 250.182 21.4259 252.851 21.8565 256C22.3985 259.963 21.5254 264.055 22.2739 268C23.423 274.056 25.9667 283.351 28.6528 288.91C30.134 291.977 33.064 293.952 34.5818 297.015C36.3082 300.498 36.589 304.547 38.4421 307.985C43.1744 316.766 51.7985 325.342 58.9105 332.129C68.0329 340.834 76.2614 350.003 88 355.352C99.9604 360.801 112.934 356.828 125 361.144C128.97 362.564 131.441 365.95 135 368.031C144.579 373.631 154.839 379.136 165 383.671C169.392 385.632 179.146 383.954 182.364 387.013C184.476 389.02 180.439 391.52 179.309 392.745C177.028 395.217 174.64 407.555 178.529 409.654C180.864 410.915 182.54 404.244 183.015 403C185.706 395.96 192.513 392.019 199 388.705C202.145 387.099 206.677 386.611 208.638 383.316C210.94 379.448 206.405 375.5 203.985 373C196.595 365.368 190.402 357.09 183.561 349C181.706 346.807 177.171 340.503 173.618 341.752C170.786 342.746 173.346 349.279 174.032 351C177.354 359.334 182.434 366.936 187.888 374C188.824 375.212 194.91 381.143 193.079 382.748C191.694 383.962 188.281 381.703 187 381.168C181.743 378.972 176.011 378.23 171 375.492C164.353 371.859 155.607 369.161 150.108 363.857C145.336 359.253 141.227 348.24 138.901 342C137.429 338.051 134.991 333.269 135.103 329C135.255 323.163 144.251 316.096 133.995 314.333C131.092 313.834 121.004 314.399 121.921 319.421C122.257 321.266 125.53 321.507 126.397 323.317C127.341 325.288 126.963 327.881 127.17 330C127.655 334.971 131.711 345.271 128.806 349.667C127.897 351.044 126.526 351.41 124.956 351.218C122.215 350.883 119.82 349.326 117 349.12C112.949 348.823 109.041 350.405 105 349.537C90.0716 346.33 80.5255 334.031 69.9606 324.285C62.5725 317.471 53.6583 309.06 49.0239 300C47.2608 296.553 47.6389 292.473 45.7222 289C40.9274 280.311 35.9239 272.058 34.2778 261.911C33.7912 258.911 34.9685 255.988 34.6474 253C34.2361 249.172 31.8374 245.847 31.365 242C30.8664 237.941 32.6166 234.02 32.9097 230C33.6221 220.231 32.8942 210.627 35.4985 201C39.3123 186.901 47.1562 177.001 54.7377 165C56.7329 161.842 57.2964 158.137 59.3395 155C67.0055 143.231 78.922 133.047 90 124.529C101.63 115.588 117.359 112.691 131 109.24C137.418 107.616 142.71 102.814 149 101.433C152.941 100.567 156.995 102.224 161 101.822C166.882 101.231 171.972 96.8102 178 97.304C181.929 97.6259 185.08 100.392 189 100.867C203.753 102.652 219.128 100.999 234 101C241.66 101 250.487 103.002 258 101.596C270.59 99.2384 285.305 97.1826 297 91.3912C312.159 83.8849 324.696 72.5887 339 63.9791C344.679 60.5609 351.35 59.9346 356.83 56.9761C366.577 51.7139 375.86 44.4976 387 41.4985C393.524 39.7421 402.274 40.7448 409 41.0394C421.245 41.5756 435.015 43.7427 446 49.5679C449.988 51.6828 453.05 55.1815 457 57.3472C460.176 59.0887 463.935 58.6648 467 60.6034C475.857 66.2057 483.078 73.601 491.09 80.1528C494.193 82.6901 498.002 84.1663 500.787 87.108C503.512 89.9865 504.698 93.9039 507.39 96.7762C509.776 99.3211 513.279 100.39 515.487 103.133C522.235 111.516 523.423 123.174 529.002 131.911C534.977 141.267 543.39 149.681 549.066 159.039C551.809 163.564 551.18 169.41 554.148 173.791C556.565 177.358 560.72 179.12 562.86 183.004C564.744 186.421 564.618 190.48 566.225 194C568.184 198.294 571.821 201.461 573.316 206C574.782 210.452 574.68 215.642 576.564 219.911C578.429 224.136 582.66 226.42 584.211 231C585.773 235.615 585.233 240.376 586.313 245C587.063 248.209 589.36 250.688 589.853 254C590.635 259.264 589.287 264.754 590.274 270C593.936 289.462 595.066 310.427 589.164 330C584.378 345.876 574.558 370.665 560.143 379.455C555.704 382.163 554.402 388.175 549.985 391.351C542.855 396.478 530.415 399.406 522 401.557C506.023 405.642 495.389 400.638 482 392.854C478.923 391.065 475.169 391.715 472.189 389.973C467.945 387.492 461.783 377.351 459.417 373C456.73 368.057 458.053 363.053 456.437 358C455.056 353.683 451.32 350.551 450.408 346C448.785 337.903 451.889 326.496 452.004 318C452.258 299.178 458.72 282.702 468.444 267C470.573 263.563 472.082 259.675 473.802 256.02C473.969 255.664 475.825 252.207 474.474 252.207C472.987 252.207 471.646 255.004 471.015 256.02C467.984 260.9 465.957 266.248 462.694 271C454.72 282.616 453.392 291.829 450.251 305C449.14 309.656 446.682 314.372 446.13 319.09C445.62 323.44 447.214 327.672 446.801 332C446.345 336.772 444.181 341.144 444.044 346C443.853 352.753 456.08 370.108 443.981 372.941C434.092 375.257 423.841 374.36 414 376.91C411.171 377.644 405.359 379.437 402.854 377.227C399.272 374.065 399.577 366.149 397.005 362C394.201 357.477 387.852 353.969 388.742 348C389.918 340.117 395.542 337.036 398.971 330.826C400.872 327.384 398.712 323.528 400.099 320C402.702 313.377 408.612 306.088 398.914 301.198C395.399 299.426 393.371 301.592 393.059 305.019C392.572 310.365 393.513 315.722 392.141 321C390.85 325.967 387.476 330.306 385.424 335C383.672 339.01 381.737 344.967 376.985 346.292C373.277 347.325 369.363 344.229 366 343.105C360.572 341.291 353.711 340.749 348 340.325C340.146 339.742 331.946 343.434 324 343.416C307.783 343.378 290.782 332.028 288.388 315C287.549 309.03 289.216 301.493 293.189 297.015C295.266 294.674 301.364 291.521 301.364 288.045C301.364 282.653 292.944 287.376 291.184 288.754C270.604 304.869 278.424 336.662 299 348.613C304.405 351.753 309.13 351.241 315 351.88C333.664 353.911 352.722 346.863 370 355.938C379.055 360.695 389.376 368.587 388.789 380C387.536 404.407 359.607 406.287 345.325 419.529C338.369 425.978 333.309 439.188 322 438.772C308.974 438.294 297.769 435.975 291.41 424.005C290.686 422.642 288.202 417.385 285.988 419.752C280.021 426.133 290.911 438.737 296 441.291C302.496 444.551 313.667 442.424 318.809 447.318C320.864 449.274 321.03 451.422 320.206 454C318.202 460.269 314.409 465.32 313.325 472C312.68 475.976 314.206 482.204 311.142 485.393C308.649 487.987 302.767 486.395 300 484.992C290.905 480.377 287.949 470.374 279.896 465.724C276.184 463.58 271.845 464.423 268 462.721C264.047 460.972 261.156 457.083 257 455.828C254.384 455.038 250.902 456.677 248.603 454.958C244.826 452.134 244.329 441.63 241.812 437.344C239.625 433.621 229.923 428.623 226 426.689C218.838 423.158 210.94 432.048 204.329 428.096C197.752 424.165 202.341 417.264 203.525 412.005C203.773 410.905 204.386 406.304 201.895 407.346C197.797 409.059 197.684 415.671 193.787 417.972C189.255 420.648 182.808 418.479 178.039 421.024C170.498 425.049 166.883 434.186 160.795 439.687C156.543 443.528 152.331 444.063 149.978 450.004C147.509 456.236 145.615 464.255 146.12 471C146.364 474.265 149.204 477.786 148.475 480.996C147.73 484.27 144.18 486.119 142.894 489.17C140.398 495.088 141.449 505.898 142.978 512C144.708 518.899 152.216 524.126 158 527.664C160.255 529.044 163.751 529.885 165.184 532.278C166.692 534.797 164.83 537.623 163.925 540C161.116 547.376 163.784 558.282 160.397 564.639C158.19 568.781 144.595 560.097 141 559.156C131.631 556.703 129.754 563.298 122 566.258C117.134 568.115 111.748 566.13 107.286 569.564C103.63 572.378 101.262 576.664 97.9105 579.815C90.0307 587.224 82.0242 592.994 75.4977 602C71.9952 606.833 70.1256 612.845 67.1235 618C55.4069 638.119 45.811 662.823 41.3758 686C40.3134 691.552 40.7286 697.373 39.7106 702.996C37.942 712.766 38.1015 722.167 36.6998 732C35.9062 737.567 33.2516 743.33 33.6373 749C34.2975 758.703 34.4012 770.734 40.5849 778.815C46.4859 786.526 57.253 787.068 66 788.05C89.1204 790.646 110.178 786.073 133 784.174C147.27 782.986 162.783 790.991 177 792.714C198.609 795.334 221.413 793.139 243 790.826C268.122 788.135 294.159 785.518 319 780.551C324.792 779.393 332.801 778.936 337.961 776.012C341.573 773.964 343.344 769.559 348.004 769.893C365.97 771.183 383.973 775.114 402 776.83C415.795 778.144 430.247 777.031 444 776.089C455.365 775.311 470.761 776.155 480.961 770.062C503.862 756.379 474.585 731.609 460 726.85C440.667 720.543 420.066 729.451 401 732.13C395.653 732.882 381.846 735.637 377.603 731.397C374.732 728.527 375.32 720.868 374.255 717C371.294 706.25 373.686 697.691 373.817 687C373.918 678.811 372.654 671.101 371.831 663C369.927 644.256 367.018 626.346 363.379 608C362.529 603.717 363.514 599.273 362.61 595C358.348 574.835 348.866 555.313 343.094 535.911C340.908 528.562 341.898 520.488 340.535 513C339.342 506.443 335.032 501.316 333.166 495C330.438 485.766 331.06 476.515 330.999 467C330.976 463.434 328.866 458.327 330.153 455.039C331.228 452.291 334.058 450.413 335.598 447.91C342.292 437.03 351.281 426.88 363 421.02C369.606 417.717 376.555 415.862 382.961 411.676C388.81 407.853 393.303 400.99 396.711 395C398.349 392.121 399.529 387.939 402.299 385.938C406.674 382.78 412.168 384.921 417 384.921C425.072 384.921 433.964 384.115 442 383.621C445.914 383.381 450.047 381.413 453.985 382.333C460.673 383.894 459.534 392.72 465.019 396.142C467.787 397.868 471.138 397.722 474 399.174C477.33 400.864 479.68 403.968 483 405.683C494.766 411.76 515.304 414.597 528 410.185C536.218 407.33 546.761 405.373 554 400.348C587.181 377.318 601.236 331.253 604.536 293C605.48 282.059 602.11 269.711 600.326 259C599.45 253.746 600.858 248.171 599.505 243C597.746 236.281 596.043 227.251 593.102 221C591.269 217.105 588.138 214.06 586.559 210C581.8 197.77 578.312 185.186 571.121 174C568.516 169.947 564.483 167.053 561.879 163C559.333 159.037 559.874 153.972 557.258 150.17C551.233 141.41 542.538 134.066 536.728 125C533.388 119.789 534.891 113.118 531.436 108C527.32 101.902 521.196 96.647 516.424 91C503.287 75.4515 491.081 60.6109 473 50.7091C468.898 48.4628 464.179 48.2095 460 46.233C456.103 44.3903 453.16 40.996 449 39.6489C432.887 34.4313 416.688 34.5888 400 33.9815C395.037 33.8009 389.97 30.7325 385 31.4877C376.046 32.8482 371.344 42.8492 361 43.1064C355.624 43.2402 352.931 39.6299 349 36.5146C342.392 31.2772 334.613 27.8641 328 22.7106C325.165 20.5012 318.725 13.3106 314.589 16.0718z"/>
<path style="fill:#fdfd18; stroke:none;" d="M310.333 31.6667L310.667 33.3333L310.333 31.6667M377 36L378 37L377 36z"/>
<path style="fill:#fefefe; stroke:none;" d="M385 41.5C378.04 44.2066 366.848 47.8351 361 52.3333C359.07 53.8182 358.218 56.3428 356 57.5C353.83 58.6322 351.254 57.5092 349 58.1667C345.606 59.1565 340 62.2919 337 64.3333C323.075 73.8098 310.551 84.8723 295 92C290.761 93.9429 286.291 93.7241 282 95.3333C279.599 96.2337 277.616 98.267 275 98.6667C272.947 98.9803 271.061 97.8855 269 98C264.361 98.2577 260.425 101.939 256 102C239.516 102.229 221.439 102.413 205 101.5C202.619 101.368 200.383 100 198 100C194.625 100 191.502 101.758 188 100.833C183.561 99.6619 181.034 96.4407 176 97C171.137 97.5403 166.796 100.667 162 101.667C156.992 102.71 151.964 99.6786 147 101.333C143.426 102.525 140.475 105.504 137 107C131.265 109.469 125.605 108.621 120 110.333C100.47 116.301 84.9974 127.461 70 141C62.6049 147.676 60.4115 155.236 55.6667 163C52.0215 168.965 45.42 173.629 42.5 180C41.0076 183.256 41.0696 187.517 39.6667 191C38.4395 194.047 36.0031 196.83 35.1667 200C34.2406 203.509 35.8491 207.517 34.8333 211C34.1833 213.229 32.3319 214.61 32 217C31.4166 221.201 33.4262 225.617 33 230C32.6019 234.095 30.5897 237.78 31 242C31.3876 245.987 34.2591 249.241 34.8333 253C35.3161 256.16 33.4816 259.63 34 263C35.5563 273.116 41.2331 281.419 46 290C47.9272 293.469 46.8534 297.707 48.5 301C49.9007 303.801 52.9933 305.67 55 308C59.8274 313.606 63.275 318.832 69 324C79.9751 333.908 88.8061 346.035 104 349.833C109.039 351.093 114.099 347.836 119 349.333C121.611 350.131 125.782 353.71 128.667 351.5C131.996 348.95 129.036 342.977 128.333 340C127.094 334.751 128.95 326.976 126.833 322.167C125.984 320.237 121.004 321.838 121.667 319C122.691 314.609 130.458 313.497 134 314.333C135.823 314.764 139.558 315.678 139.667 318C139.809 321.029 135.997 322.431 135.167 325C133.314 330.735 136.846 338.937 139.167 344C140.618 347.167 143.489 349.739 144.667 353C146.127 357.044 145.794 360.594 149 364C155.933 371.366 170.593 375.864 180 379C183.653 380.218 189.319 384.181 193 384C198.389 383.735 189.694 375.345 188.667 374C183.253 366.912 179.128 359.821 175 352C173.914 349.943 171.101 344.578 172.5 342.167C173.366 340.674 175.641 341.142 177 340.5C179.895 339.133 182.863 336.335 185 334C192.81 325.469 198.102 313.079 201.333 302C201.999 299.719 201.586 287 205.5 287C206.101 287 205.968 290.634 208 291C217.398 292.695 228.601 289.399 237 285.667C244.95 282.133 253.591 278.348 261 273.833C262.414 272.972 264.973 268.008 266.667 268.667C266.752 268.7 269.653 277.57 271 279C276.247 284.57 283.389 287.683 291 288C293.916 288.121 299.685 282.718 301.5 287C302.758 289.968 291.708 296.847 290 300C283.417 312.153 292.624 336.08 306 340.167C315.325 343.016 325.554 343 335 343C338.739 343 342.257 340.375 346 340.167C350.706 339.905 356.258 341.539 361 342C366.625 342.547 373.336 349.455 379 346.5C383.288 344.263 384.286 337.984 386.167 334C390.71 324.379 393 318.949 393 308C393 305.031 392.957 298.259 398 300.5C408.885 305.338 402.74 312.521 399.5 319C397.698 322.603 401.363 326.428 399.5 330C397.98 332.912 394.232 333.666 392.5 336.333C390.429 339.524 388.163 346.098 388 350C387.761 355.746 395.383 359.232 397.833 364C399.261 366.777 400.141 377.977 403.167 378.833C407.935 380.183 415.493 376.293 420 375.167C425.302 373.841 432.51 374.229 438 374C440.244 373.906 447.163 373.69 448.5 371.833C454.321 363.748 443.242 352.796 444 345C444.402 340.87 446.601 337.102 447 333C447.463 328.241 445.32 323.693 446 319C446.656 314.476 449.571 309.642 450.667 305C452.508 297.2 452.107 290.453 455.833 283C459.929 274.808 465.305 266.951 469.833 259C470.565 257.716 472.969 252 474.667 252C474.396 252 470.557 262.591 469.833 264C466.603 270.286 461.171 275.41 458.333 282C455.405 288.802 455.694 295.866 455 303C454.654 306.562 452.388 309.506 452 313C451.341 318.929 452.577 325.062 452 331C451.515 335.984 449.435 340.912 450 346C450.55 350.952 454.551 353.747 456.5 358C458.793 363.004 456.328 368.721 459.333 374C461.5 377.805 465.424 380.263 467.5 384C468.737 386.227 468.689 389.014 471.167 390.5C473.959 392.175 477.921 390.661 481 392.5C483.298 393.872 484.785 396.19 487 397.667C497.265 404.51 513.452 404.695 525 401.167C527.902 400.28 530.022 398.078 533 397.333C539.127 395.802 545.543 395.51 551 391.667C555.191 388.715 554.755 384.245 558 381C560.348 378.652 563.633 379.329 566 377C571.923 371.173 574.828 362.283 578.167 355C585.428 339.158 592.262 323.876 594 306C594.517 300.682 592.685 296.93 592 292C591.228 286.444 594.547 280.641 592.667 275C591.946 272.837 590.326 271.344 590 269C589.23 263.459 591.036 257.475 589.667 252C588.926 249.037 586.457 246.99 586 244C585.174 238.596 585.994 233.236 583.667 228C582.063 224.392 578.217 223.291 576.5 220C574.243 215.674 574.629 208.784 573.167 204C571.69 199.167 567.001 195.801 565 191C563.691 187.858 564.148 184.001 562.5 181C560.624 177.585 556.644 176.984 554.5 174C550.929 169.031 552.3 162.954 549.5 158C547.909 155.185 544.564 154.53 542.667 152C537.978 145.749 533.829 138.384 529.333 132C526.177 127.518 527.019 121.651 524.5 117C523.228 114.651 520.783 113.22 519.333 111C517.542 108.255 518.027 104.566 515.833 102C513.771 99.5878 510.281 99.281 508 97C504.834 93.8341 504.166 89.1659 501 86C498.72 83.7197 495.59 83.0012 493 81.1667C489.418 78.6292 487.747 75.0845 484.667 72.1667C482.22 69.8489 478.629 69.6954 476 67.8333C472.994 65.7042 471.025 62.2676 468 60.1667C464.981 58.0701 461.202 59.6232 458 57.6667C454.083 55.2729 451.038 51.5765 447 49.3333C435.25 42.8058 419.294 41 406 41C399.898 41 390.697 39.2844 385 41.5z"/>
<path style="fill:#fdfd18; stroke:none;" d="M356.667 43.3333L358.333 43.6667L356.667 43.3333M459.667 46.3333L460.333 46.6667L459.667 46.3333z"/>
<path style="fill:#1d1c1c; stroke:none;" d="M267.005 59.8889C266.033 60.3845 259.328 66.3931 261.819 67.6343C262.895 68.1699 267.303 64.1774 270 64.8935C275.15 66.2612 283.904 74.703 289.5 71.5278C292.477 69.8385 287.182 66.486 285.995 65.6667C281.083 62.2759 273.242 56.7089 267.005 59.8889z"/>
<path style="fill:#fdfd18; stroke:none;" d="M495 67L496 68L495 67M322 76L323 77L322 76M318.667 78.3333L319.333 78.6667L318.667 78.3333M490 79L491 80L490 79M138 95L139 96L138 95M170.667 98.3333L171.333 98.6667L170.667 98.3333M522 98L523 99L522 98M108.667 115.333L109.333 115.667L108.667 115.333M103.667 117.333L104.333 117.667L103.667 117.333M98.6667 119.333L99.3333 119.667L98.6667 119.333M539 128L540 129L539 128M80 132L81 133L80 132M532 135L533 136L532 135z"/>
<path style="fill:#1d1c1c; stroke:none;" d="M327.553 137.301C320.769 142.037 335.266 147.95 338 149.264C349.748 154.912 361.587 155.917 374 156.791C378.625 157.117 384.221 160.931 388.469 157.186C394.34 152.01 383.355 148.596 380 147.48C367.912 143.461 354.335 143.933 342 139.521C338.255 138.181 331.389 134.622 327.553 137.301z"/>
<path style="fill:#fdfd18; stroke:none;" d="M343.667 140.333L344.333 140.667L343.667 140.333z"/>
<path style="fill:#1d1c1c; stroke:none;" d="M287 141.828C276.27 144.517 265.279 148.67 254 147.437C250.233 147.026 242.771 145.598 240.311 149.498C235.642 156.901 249.169 157.596 253 158.058C265.469 159.562 282.679 159.474 293.712 152.407C301.51 147.413 294.004 140.073 287 141.828z"/>
<path style="fill:#fdfd18; stroke:none;" d="M543 153L544 154L543 153M559.333 155.667L559.667 157.333L559.333 155.667M551.333 165.667L551.667 167.333L551.333 165.667M563.333 183.667L563.667 184.333L563.333 183.667M564.333 187.667L564.667 189.333L564.333 187.667M577 188L578 189L577 188z"/>
<path style="fill:#1d1c1c; stroke:none;" d="M181 193.99C175.097 195.838 170.654 194.455 165 195.59C160.422 196.509 154.896 201.048 151.258 203.912C142.179 211.061 132.237 230.806 147.139 238.238C163.045 246.17 181.475 245.603 198 240.315C212.839 235.567 224.309 213.972 212.122 201.564C207.758 197.122 201.396 198.751 196 196.901C190.91 195.156 186.568 192.248 181 193.99z"/>
<path style="fill:#fdfd18; stroke:none;" d="M158 199L159 200L158 199M187.667 199.333L189.333 199.667L187.667 199.333z"/>
<path style="fill:#fefefe; stroke:none;" d="M187.806 200.639L189.194 201.361L187.806 200.639z"/>
<path style="fill:#1d1c1c; stroke:none;" d="M553.725 203.503C550.938 205.374 553.462 212.238 553.167 215C552.775 218.674 550.468 221.544 549.45 225C547.55 231.446 550.29 234.214 543.074 238C535.738 241.848 545.99 224.806 546.491 221.003C546.766 218.917 547.077 213.864 543.637 214.323C539.256 214.907 535.904 220.915 533.184 223.863C530.019 227.294 525.748 229.341 522.878 233.066C519.378 237.611 517.845 243.223 514.765 248C513.909 249.327 506.933 258.918 505.061 257.357C503.092 255.715 508.328 247.59 509.103 246C514.08 235.78 520.653 228.809 527.726 220C528.854 218.595 534.091 212.545 532.338 210.503C530.557 208.428 524.206 214.339 523 215.362C514.945 222.19 504.158 228.556 497.841 237.008C490.389 246.979 490.425 258.168 485.842 269C481.708 278.773 473.716 286.426 469.617 296C468.105 299.531 468.892 303.316 468.159 307C467.283 311.404 464.143 315.578 463.826 320C463.593 323.254 465.885 325.859 466.271 328.999C467.2 336.537 466.573 344.388 467.412 352C467.782 355.357 469.981 357.907 471.091 361C473.606 368.007 473.966 375.086 480.499 380.194C496.404 392.628 525.283 388.739 540.922 378.566C548.296 373.769 557.614 364.372 560.77 355.96C561.979 352.736 561.397 349.198 562.822 346C564.639 341.92 568.602 339.192 570.172 335C571.497 331.462 570.24 327.627 571.092 324C573.606 313.301 577.335 300.056 577.456 289C577.589 276.756 573.954 264.982 572.563 253C571.967 247.867 572.88 241.921 571.264 237.003C569.471 231.547 564.146 229.607 561.619 224.863C559.265 220.442 561.318 215.685 560.834 211.008C560.583 208.579 557.42 201.024 553.725 203.503z"/>
<path style="fill:#fdfd18; stroke:none;" d="M584.333 202.667L584.667 203.333L584.333 202.667z"/>
<path style="fill:#fefefe; stroke:none;" d="M165.498 206.395C162.831 207.755 165.261 210.2 167.502 209.16C170.153 207.93 167.712 205.266 165.498 206.395M178.5 210.5L179.5 211.5L178.5 210.5z"/>
<path style="fill:#fdfd18; stroke:none;" d="M34.3333 211.667L34.6667 212.333L34.3333 211.667M141.333 213.667L141.667 214.333L141.333 213.667M20 218L20 222L21 222L20 218M591 218L592 219L591 218z"/>
<path style="fill:#fefefe; stroke:none;" d="M151.56 220.543C146.781 224.073 156.517 233.63 161.031 229.769C163.827 227.378 152.577 219.791 151.56 220.543M197.257 220.306C193.648 221.801 186.115 226.091 183.377 228.909C180.037 232.345 185.355 233.336 187.997 232.392C191.648 231.088 194.651 227.125 196.753 224.02C196.989 223.672 199.375 219.428 197.257 220.306z"/>
<path style="fill:#fdfd18; stroke:none;" d="M546.333 221.667L546.667 223.333L546.333 221.667M523 224L524 225L523 224M194 226L195 227L194 226M510 226L511 227L510 226z"/>
<path style="fill:#fefefe; stroke:none;" d="M545.702 240.544C535.965 244.419 532.298 259.372 528.903 268C528.44 269.175 524.248 279.357 527.515 279.357C529.678 279.357 531.785 274.518 532.849 273.074C538.583 265.29 542.424 256.914 546.238 248.001C546.835 246.607 550.084 238.8 545.702 240.544z"/>
<path style="fill:#fdfd18; stroke:none;" d="M188.667 241.333L189.333 241.667L188.667 241.333z"/>
<path style="fill:#fefefe; stroke:none;" d="M548.595 250.562L544.239 262.981L545.961 266.87L549.975 255.016L548.595 250.562z"/>
<path style="fill:#fdfd18; stroke:none;" d="M513 250L514 251L513 250M589.333 250.667L589.667 251.333L589.333 250.667M602.333 265.667L602.667 266.333L602.333 265.667M465 267L466 268L465 267M543 267L545 270L543 267z"/>
<path style="fill:#1d1c1c; stroke:none;" d="M265.21 269.544C261.758 271.648 259.853 278.48 258.298 282C253.311 293.289 247.196 305.85 244.84 318C243.925 322.717 245.922 333.679 253.478 330.116C257.73 328.111 253.063 317.673 253.256 314C253.866 302.408 260.506 290.926 263.875 280C264.207 278.925 268.043 267.817 265.21 269.544z"/>
<path style="fill:#fdfd18; stroke:none;" d="M528.333 268.667L528.667 269.333L528.333 268.667M266 271C262.844 285.235 253.685 299.303 253.137 314C253.007 317.488 257.317 328.539 252.671 329.935C245.14 332.196 244.186 321.509 245.286 317C248.969 301.896 256.487 287.043 263 273C249.793 277.179 238.566 285.959 225 289.375C220.918 290.403 210.081 289.279 207.3 292.26C205.142 294.573 206.947 301.097 206.995 304C207.199 316.321 208.464 330.655 213.621 342C217.327 350.154 222.989 355.379 231.978 356.008C233.066 356.084 237.295 356.038 236.357 358.218C235.288 360.701 231.259 360.986 229 361.154C221.397 361.72 213.645 360.367 208.821 353.903C198.743 340.398 202 316.806 202 301L201 301C198.388 310.449 194.188 321.238 188.135 328.999C185.622 332.222 177.578 337.642 178.079 342.078C178.458 345.441 182.327 348.541 184.359 351C189.601 357.343 194.319 364.058 200.04 370C202.729 372.793 208.002 376.564 208.375 380.761C208.786 385.379 202.105 386.836 198.999 388.295C192.049 391.559 184.437 396.035 182.456 403.952C181.227 408.868 191.188 418.943 195.934 415.902C197.407 414.958 200.571 407.286 202.78 408.643C204.476 409.686 202.56 413.751 202.137 415.002C200.697 419.259 199.222 424.862 203.645 428.035C208.81 431.74 216.488 425.63 222 426.076C227.179 426.495 234.111 432.26 238.551 434.972C245.463 439.195 243.018 449.861 248.238 454.733C250.357 456.711 254.393 455.579 257 456.56C260.665 457.937 263.418 461.004 267 462.577C270.835 464.262 275.191 463.778 278.903 465.846C285.807 469.692 289.192 478.321 296.008 482.951C299.371 485.235 307.077 488.954 310.958 485.733C314.38 482.891 312.911 474.985 313.79 471C315.108 465.027 324.486 452.899 319.45 447.501C316.882 444.749 312.447 444.899 309 444.42C300.087 443.179 279.63 434.495 285.856 421.568C287.314 418.541 290.083 422.763 290.863 424.059C297.874 435.701 309.282 439.308 323 438.798C334.447 438.372 338.881 426.215 346.258 419.615C360.885 406.53 397.664 399.921 387.492 372C385.336 366.082 381.07 362.499 376 359.043C369.541 354.641 359.911 350.622 352 350.215C347.19 349.968 342.707 352.018 338 352.523C325.675 353.846 307.369 354.021 297.019 346.559C286.869 339.241 275.397 322.244 279.501 309C281.096 303.854 283.743 299.5 286.629 295.008C287.617 293.473 289.741 290.936 289.074 288.932C288.249 286.455 282.091 285.924 280 284.831C273.911 281.65 269.962 276.394 266 271M533 271L534 272L533 271M460 274L461 275L460 274z"/>
<path style="fill:#fefefe; stroke:none;" d="M507.812 277.544C504.171 279.085 501.846 284.315 501.067 287.929C500.708 289.593 500.59 292.609 503.203 291.894C506.983 290.86 509.085 285.402 509.988 282.03C510.452 280.301 510.913 276.231 507.812 277.544z"/>
<path style="fill:#1d1c1c; stroke:none;" d="M204.816 287.631C199.853 289.336 202 306.038 202 310C202 328.922 199.075 359.154 224 361.385C227.498 361.698 232.687 361.804 235.833 359.992C237.215 359.196 238.884 357.15 236.623 356.317C232.436 354.775 228.175 356.53 224.015 353.991C209.796 345.312 207.693 321.938 207.039 307C206.818 301.947 206.527 297.042 206.085 292.005C206.033 291.412 206.174 287.165 204.816 287.631z"/>
<path style="fill:#fdfd18; stroke:none;" d="M398 300L399 301L398 300z"/>
<path style="fill:#fefefe; stroke:none;" d="M522.861 302.761L516.733 314.967L517.988 319.239L523.992 307.033L522.861 302.761z"/>
<path style="fill:#fdfd18; stroke:none;" d="M402 304L403 305L402 304M517.333 311.667L517.667 312.333L517.333 311.667z"/>
<path style="fill:#fefefe; stroke:none;" d="M479.538 314.544C477.352 316.141 477.681 327.398 480 326.239C483.42 324.529 481.733 312.94 479.538 314.544M494.56 316.54L495.943 321.46L494.56 316.54z"/>
<path style="fill:#fdfd18; stroke:none;" d="M515 316C515.013 319.194 514.597 321.271 518 322L518 321L515 316z"/>
<path style="fill:#fefefe; stroke:none;" d="M533.984 320.544C530.227 322.278 527.626 334.573 531.945 332.456C535.208 330.857 538.589 318.419 533.984 320.544z"/>
<path style="fill:#fdfd18; stroke:none;" d="M67 322L68 323L67 322M137 322L138 323L137 322M74 329L75 330L74 329z"/>
<path style="fill:#fefefe; stroke:none;" d="M504.256 331.525C501.185 333.568 503.843 343.336 508.173 340.033C511.962 337.141 508.123 328.954 504.256 331.525z"/>
<path style="fill:#fdfd18; stroke:none;" d="M508 332L509 333L508 332M128.333 339.667L128.667 340.333L128.333 339.667M321 343L321 344L326 344L321 343M140 346L141 347L140 346z"/>
<path style="fill:#fefefe; stroke:none;" d="M547.828 350.223C541.715 352.126 533.823 358.188 529.151 362.472C527.042 364.407 523.697 369.803 529.144 369.186C536.095 368.398 542.315 361.749 546.831 356.926C548.081 355.591 553.383 348.495 547.828 350.223z"/>
<path style="fill:#fdfd18; stroke:none;" d="M121.667 360.333L122.333 360.667L121.667 360.333z"/>
<path style="fill:#1d1c1c; stroke:none;" d="M301.198 365.087C296.182 367.016 289.902 375.448 286.295 379.427C285.078 380.77 282.085 385.603 286.295 384.863C291.744 383.904 299.985 377.654 302.656 372.92C303.671 371.12 305.983 363.247 301.198 365.087z"/>
<path style="fill:#fefefe; stroke:none;" d="M492.81 365.467L494.19 367.533L492.81 365.467z"/>
<path style="fill:#fdfd18; stroke:none;" d="M536 366L537 367L536 366M140 370L141 371L140 370M474 372L475 373L474 372M460 375L461 376L460 375M174.667 377.333L175.333 377.667L174.667 377.333M556.333 382.667L556.667 384.333L556.333 382.667M459.333 386.667L459.667 387.333L459.333 386.667M462 394L463 395L462 394M492.667 408.333L493.333 408.667L492.667 408.333M510 412L510 413L514 413L510 412M373.667 416.333L374.333 416.667L373.667 416.333z"/>
<path style="fill:#fefefe; stroke:none;" d="M186.004 426.95C175.59 429.406 194.588 443.285 197.543 442.031C203.667 439.431 189.555 426.113 186.004 426.95M220.011 433.002C207.669 435.934 218.558 448.317 212.377 454.248C208.003 458.445 202.738 452.558 198 452.177C189.015 451.454 180.459 464.658 181.483 472.989C182.654 482.514 199.357 480.485 199.357 489.94C199.357 496.75 188.613 497.421 184.586 500.233C179.817 503.564 180.487 511.996 181.71 516.959C186.098 534.764 200.159 512.945 207.45 518.889C211.633 522.3 206.223 528.227 205.497 532C204.293 538.253 208.895 542.703 214.003 545.359C221.293 549.148 229.718 547.142 236.992 550.166C241.42 552.007 244.194 557.448 249.04 558.101C258.272 559.345 266.883 558.203 276 562.209C285.477 566.373 289.686 576.294 298.321 581.769C302.904 584.675 308.664 587.526 314 588.591C317.052 589.2 321.88 589.034 323.677 592.184C325.249 594.94 319.42 595.228 317.996 595.519C314.343 596.265 300.727 593.511 299.504 596.528C298.079 600.043 299.875 604.442 300.208 608C300.824 614.576 300.672 621.36 301.172 628C301.93 638.071 298.779 651.174 296.229 661C294.671 666.999 292.091 673.085 290.142 678.997C289.557 680.771 287.769 683.229 288.272 685.178C289.162 688.632 298.605 686.708 301 686.438C313.406 685.042 327.332 684.891 339 690.026C342.012 691.352 353.043 695.364 349.902 700.374C347.402 704.36 335.888 697.166 332 696.517C318.357 694.24 294.731 690.649 282.096 696.904C279.482 698.198 270.09 707.228 268.628 700.79C267.599 696.26 271.983 691.495 274.197 688C278.918 680.548 283.177 672.17 286.506 664C297.377 637.32 298.225 603.196 283.07 578.003C273.222 561.632 253.818 564.519 241.32 576.106C238.614 578.615 232.179 582.943 232.106 587.017C231.993 593.323 245.639 595.22 249.929 596.964C251.789 597.719 255.341 599.706 253.592 602.247C252.071 604.459 248.159 603.366 245.999 603.152C238.778 602.434 232.887 599.307 226 597.973C217.659 596.358 205.922 612.17 203.4 618.99C198.849 631.298 227.81 626.079 224.274 636.933C219.893 650.376 200.066 626.04 194.822 633.314C178.596 655.823 167.165 688.587 162.777 716C161.178 725.989 157.781 732.525 159.484 743C161.804 757.273 164.747 773.408 179.066 781.051C186.289 784.906 196.248 781.539 204 781.155C209.028 780.905 213.966 782.374 219 781.783C236.88 779.683 255.442 775.043 273 771.062C291.602 766.843 312.345 775.553 331 769.091C336.318 767.25 339.832 762.831 344 759.302C349.198 754.901 358.423 751.089 360.354 743.96C361.902 738.25 357.791 732.885 359.284 727C364.472 706.552 364.937 689.944 362.441 669C361.696 662.752 361.973 656.081 360.202 650C354.23 629.489 342.256 608.819 340.545 587C340.106 581.408 343.629 576.49 343.485 571C343.079 555.486 335.844 538.81 331.401 524C329.274 516.91 330.151 510.911 324.878 505.003C316.282 495.372 307.634 495.677 297 490.785C290.193 487.653 284.26 482.175 277 479.861C272.982 478.58 268.924 480.565 265 479.372C262.161 478.509 260.006 476.204 257 475.755C250.729 474.818 243.24 480.036 237.188 476.722C228.29 471.849 234.981 462.495 237.036 456C239.868 447.055 236.502 440.648 228.997 435.916C226.283 434.205 223.38 432.202 220.011 433.002M170.394 439.413C164.664 442.251 155.138 451.521 154.225 458C153.002 466.683 157.516 478.552 168.764 474.1C174.959 471.648 175.403 457.515 178.464 452.008C179.677 449.825 182.071 446.699 181.912 444.06C181.67 440.036 173.388 437.93 170.394 439.413z"/>
<path style="fill:#fdfd18; stroke:none;" d="M237.333 443.667L237.667 444.333L237.333 443.667M152 445L153 446L152 445M181.333 445.667L181.667 446.333L181.333 445.667z"/>
<path style="fill:#fefefe; stroke:none;" d="M246.892 462.25C242.62 466.027 251.924 468.578 255.031 465.502C258.413 462.153 249.289 460.129 246.892 462.25M273.083 470.694L274.917 471.306L273.083 470.694M320.884 474.018L321.982 475.116L320.884 474.018z"/>
<path style="fill:#fdfd18; stroke:none;" d="M149.333 479.667L149.667 481.333L149.333 479.667z"/>
<path style="fill:#fefefe; stroke:none;" d="M320.117 485.465C316.594 486.926 317.365 492.852 321.21 491.034C323.484 489.959 323.205 484.185 320.117 485.465M163 488.801C159.178 489.795 152.533 491.158 150.862 495.206C147.385 503.628 154.056 522.864 165.708 520.358C170.074 519.42 167.97 512.142 168.771 509C170.531 502.101 180.006 489.41 166.997 488.292C165.661 488.177 164.283 488.467 163 488.801z"/>
<path style="fill:#fdfd18; stroke:none;" d="M330 516L330 521L331 521L330 516M152 523L153 524L152 523M156 526L157 527L156 526M160.667 529.333L161.333 529.667L160.667 529.333M166.333 532.667L166.667 534.333L166.333 532.667z"/>
<path style="fill:#fefefe; stroke:none;" d="M178.439 537.345C167.374 541.99 164.483 558.984 168.735 569C171.219 574.848 176.463 580.033 180.366 584.981C186.749 593.075 193.905 601.008 204.979 596.219C210.23 593.947 212.221 588.318 215.604 584.136C221.103 577.337 227.087 572.398 233.892 567.168C235.696 565.782 239.822 561.702 237.071 559.338C234.972 557.534 230.411 558.952 228 559.28C222.554 560.021 217.102 560.327 212 557.888C208.515 556.222 203.778 554.274 201.049 551.51C195.537 545.926 189.094 532.872 178.439 537.345z"/>
<path style="fill:#fdfd18; stroke:none;" d="M345 541L346 542L345 541M197 547L198 548L197 547M218.667 547.333L219.333 547.667L218.667 547.333M168.333 548.667L168.667 549.333L168.333 548.667M211.667 558.333L212.333 558.667L211.667 558.333M352.333 562.667L352.667 563.333L352.333 562.667z"/>
<path style="fill:#fefefe; stroke:none;" d="M136 568.918C125.292 572.869 113.011 579.968 105.003 588.003C103.063 589.949 97.7752 593.952 98.3231 597.178C98.92 600.693 113.084 598.69 115.941 599.602C118.419 600.392 120.85 602.691 118.432 605.096C114.828 608.679 107.484 605.986 103 606.026C90.6695 606.136 83.2357 608.714 77.2401 620C76.0421 622.255 72.6043 626.467 73.2745 629.178C73.7969 631.292 77.424 630.956 79.0112 630.989C85.4975 631.123 91.6618 630.767 97.9982 632.426C99.179 632.735 105.275 633.556 104.357 635.699C100.388 644.959 84.0962 640.22 77.0007 638.827C73.73 638.185 70.0262 636.056 67.5604 639.351C63.676 644.54 63.6904 652.133 61.3201 658C51.273 682.871 48.5093 709.486 45.4414 736C44.1064 747.538 44.1054 761.371 52.4834 770.398C64.506 783.351 81.3304 780.175 97 778.258C108.528 776.847 118.664 776.695 130 773.259C135.653 771.545 142.359 771.965 147.708 769.415C152.5 767.131 148.038 758.309 148.003 753.999C147.918 743.482 147.734 732.402 149.401 722C150.294 716.425 154.708 709.048 154.023 703.502C153.68 700.718 149.991 701.073 148.085 701.83C145.251 702.955 134.631 713.662 135.648 702.97C136.639 692.554 146.777 685.881 150.822 677C158.842 659.389 164.495 642.269 167.293 623C168.716 613.197 170.478 602.847 167.951 593C164.912 581.155 149.646 563.884 136 568.918z"/>
<path style="fill:#fdfd18; stroke:none;" d="M285 568L286 569L285 568z"/>
<path style="fill:#fefefe; stroke:none;" d="M176.286 593.575C174.172 595.094 176.358 602.628 176.279 605C175.948 614.972 175.438 627.476 172.442 636.997C172.163 637.88 170.248 645.448 173.571 643.456C176.473 641.716 177.397 635.829 178.988 633C183.158 625.584 195.504 615.526 194.912 606.092C194.7 602.712 179.863 591.004 176.286 593.575z"/>
<path style="fill:#fdfd18; stroke:none;" d="M189 594L190 595L189 594M291.333 596.667L291.667 597.333L291.333 596.667M187.333 598.667L187.667 599.333L187.333 598.667M344.333 601.667L344.667 602.333L344.333 601.667M110.667 606.333L112.333 606.667L110.667 606.333M194.333 607.667L194.667 608.333L194.333 607.667M208 612L209 613L208 612M64 622L65 623L64 622M223.667 631.333L224.333 631.667L223.667 631.333M165.333 634.667L165.667 635.333L165.333 634.667M203 634L204 635L203 634M193.333 635.667L193.667 636.333L193.333 635.667M55.3333 641.667L55.6667 642.333L55.3333 641.667M291 643L291 650L292 650L291 643M371 651L371 661L372 661L371 651M49.3333 657.667L49.6667 658.333L49.3333 657.667M61.3333 657.667L61.6667 658.333L61.3333 657.667M288.333 658.667L288.667 659.333L288.333 658.667M155 667L156 668L155 667z"/>
<path style="fill:#fefefe; stroke:none;" d="M159.195 674.544L151.487 690.161L153.404 692.459L160.552 678.073L159.195 674.544z"/>
<path style="fill:#fdfd18; stroke:none;" d="M156 676L156 683L157 683L156 676M277.333 681.667L277.667 682.333L277.333 681.667M344.667 692.333L345.333 692.667L344.667 692.333M167.333 697.667L167.667 698.333L167.333 697.667M278 699L279 700L278 699M49 701L49 705L50 705L49 701M39.3333 702.667L39.6667 704.333L39.3333 702.667M165.333 703.667L165.667 704.333L165.333 703.667M451.667 725.333L453.333 725.667L451.667 725.333z"/>
<path style="fill:#fefefe; stroke:none;" d="M433 731.582C425.588 733.023 418.373 735.651 411 737.335C401.04 739.609 391.991 739.762 385.531 748.029C382.916 751.376 375.141 757.338 378.311 762.333C380.854 766.341 390.703 767.6 395 768.944C404.692 771.976 413.188 769.774 423 769.139C435.511 768.329 447.517 767.792 460 765.465C464.217 764.679 479.62 761.27 481.593 757.499C484.046 752.809 475.776 746.473 472.922 743.802C461.772 733.366 448.321 728.603 433 731.582z"/>
<path style="fill:#fdfd18; stroke:none;" d="M475 736L476 737L475 736M360.333 737.667L360.667 738.333L360.333 737.667M465 737L466 738L465 737M474 745L475 746L474 745M148 746L148 763L149 763L148 746M46.3333 759.667L46.6667 760.333L46.3333 759.667M379.667 764.333L380.333 764.667L379.667 764.333M50 768L51 769L50 768M342 771L343 772L342 771M377 774L377 775L383 775L377 774M386 775L386 776L392 776L386 775M137.667 784.333L139.333 784.667L137.667 784.333M146.667 786.333L148.333 786.667L146.667 786.333M218 792L218 793L223 793L218 792z"/>
</svg>
